<svg xmlns="http://www.w3.org/2000/svg" width="18" height="18" viewBox="0 0 18 18" fill="none"><path fill-rule="evenodd" clip-rule="evenodd" d="M9.69164 2.22013L9.18769 1.5967C9.0188 1.38782 8.70038 1.38782 8.53149 1.5967L8.02753 2.22013C7.73655 2.5801 7.34733 2.84785 6.90712 2.99089C6.46691 3.13393 5.99465 3.14609 5.54766 3.02591L4.77347 2.81779C4.51411 2.74804 4.25644 2.93521 4.24261 3.20348L4.20136 4.00406C4.17753 4.46631 4.02002 4.91171 3.74795 5.28617C3.47588 5.66064 3.10096 5.94807 2.66869 6.11357L1.92005 6.40021C1.66922 6.49626 1.57083 6.79917 1.71727 7.02426L2.15447 7.69626C2.40689 8.08423 2.54126 8.53714 2.54126 8.99999C2.54126 9.46285 2.40689 9.91576 2.15447 10.3037L1.71727 10.9757C1.57078 11.2008 1.66922 11.5037 1.92005 11.5998L2.66869 11.8864C3.10096 12.0519 3.47588 12.3393 3.74795 12.7138C4.02002 13.0883 4.17753 13.5337 4.20136 13.9959L4.24261 14.7965C4.25644 15.0648 4.51411 15.2519 4.77347 15.1822L5.54766 14.9741C5.99464 14.8539 6.46691 14.866 6.90712 15.0091C7.34733 15.1521 7.73655 15.4198 8.02753 15.7798L8.53149 16.4033C8.70038 16.6122 9.0188 16.6122 9.18769 16.4033L9.69164 15.7798C9.98263 15.4198 10.3718 15.1521 10.8121 15.0091C11.2523 14.866 11.7245 14.8539 12.1715 14.9741L12.9457 15.1822C13.2051 15.2519 13.4627 15.0648 13.4766 14.7965L13.5178 13.9959C13.5416 13.5337 13.6992 13.0883 13.9712 12.7138C14.2433 12.3393 14.6182 12.0519 15.0505 11.8864L15.7991 11.5998C16.05 11.5037 16.1484 11.2008 16.0019 10.9757L15.5647 10.3037C15.3123 9.91576 15.1779 9.46285 15.1779 8.99999C15.1779 8.53714 15.3123 8.08423 15.5647 7.69626L16.0019 7.02426C16.1484 6.79917 16.05 6.49626 15.7991 6.40021L15.0505 6.11357C14.6182 5.94807 14.2433 5.66064 13.9712 5.28617C13.6992 4.91171 13.5416 4.46631 13.5178 4.00406L13.4766 3.20348C13.4627 2.93521 13.2051 2.74804 12.9457 2.81779L12.1715 3.02591C11.7245 3.14609 11.2523 3.13393 10.812 2.99089C10.3718 2.84785 9.98262 2.5801 9.69164 2.22013ZM9.9532 0.977899C9.39038 0.281618 8.3288 0.281618 7.76597 0.977899L7.26202 1.60134C7.09084 1.81308 6.86188 1.97058 6.60293 2.05472C6.34397 2.13885 6.06616 2.146 5.80322 2.07529L5.02908 1.86717C4.16447 1.63467 3.30563 2.25866 3.25955 3.15281L3.2183 3.95338C3.20428 4.2253 3.11163 4.4873 2.95158 4.70757C2.79154 4.92784 2.57098 5.09692 2.3167 5.19426L1.56806 5.48095C0.731907 5.80106 0.403876 6.81065 0.892126 7.56112L1.32938 8.23307C1.47787 8.46129 1.55691 8.72772 1.55691 8.99999C1.55691 9.27227 1.47787 9.53869 1.32938 9.76691L0.892173 10.4389C0.403876 11.1893 0.731907 12.1989 1.56806 12.519L2.3167 12.8057C2.57098 12.903 2.79153 13.0721 2.95157 13.2924C3.11162 13.5127 3.20427 13.7747 3.2183 14.0466L3.25955 14.8472C3.30563 15.7413 4.16447 16.3653 5.02908 16.1328L5.80322 15.9247C6.06616 15.854 6.34397 15.8611 6.60293 15.9453C6.86188 16.0294 7.09084 16.1869 7.26202 16.3987L7.76597 17.0221C8.3288 17.7184 9.39038 17.7184 9.9532 17.0221L10.4572 16.3987C10.6283 16.1869 10.8573 16.0294 11.1162 15.9453C11.3752 15.8611 11.653 15.854 11.916 15.9247L12.6901 16.1328C13.5547 16.3653 14.4135 15.7413 14.4596 14.8472L14.5009 14.0466C14.5149 13.7747 14.6076 13.5127 14.7676 13.2924C14.9276 13.0721 15.1482 12.903 15.4025 12.8057L16.1511 12.519C16.9873 12.1989 17.3153 11.1893 16.827 10.4389L16.3898 9.76691C16.2413 9.53869 16.1623 9.27227 16.1623 8.99999C16.1623 8.72772 16.2413 8.46129 16.3898 8.23307L16.827 7.56112C17.3153 6.81065 16.9873 5.80106 16.1511 5.48095L15.4025 5.19426C15.1482 5.09692 14.9276 4.92784 14.7676 4.70757C14.6075 4.4873 14.5149 4.2253 14.5009 3.95338L14.4596 3.15281C14.4135 2.25866 13.5547 1.63467 12.6901 1.86717L11.916 2.07529C11.653 2.146 11.3752 2.13885 11.1162 2.05472C10.8573 1.97058 10.6283 1.81308 10.4572 1.60134L9.9532 0.977899Z" fill="#2562FF"></path><path fill-rule="evenodd" clip-rule="evenodd" d="M12.4446 6.45177C12.6353 6.64555 12.6327 6.95717 12.4388 7.14777L8.6863 10.8382C8.11635 11.3987 7.19751 11.383 6.64705 10.8033L5.31496 9.40039C5.12779 9.20328 5.13585 8.89175 5.33296 8.70454C5.53007 8.51736 5.8416 8.52543 6.02877 8.72258L7.36091 10.1255C7.53238 10.306 7.81855 10.3109 7.99607 10.1363L11.7486 6.44596C11.9424 6.25536 12.2541 6.25794 12.4446 6.45177Z" fill="#2562FF"></path></svg>