<?xml version="1.0" encoding="UTF-8"?>
<!DOCTYPE svg PUBLIC "-//W3C//DTD SVG 1.1//EN" "http://www.w3.org/Graphics/SVG/1.1/DTD/svg11.dtd">
<!-- Creator: CorelDRAW 2021 (64-Bit) -->
<svg xmlns="http://www.w3.org/2000/svg" xml:space="preserve" width="743.407mm" height="407.187mm" version="1.1" style="shape-rendering:geometricPrecision; text-rendering:geometricPrecision; image-rendering:optimizeQuality; fill-rule:evenodd; clip-rule:evenodd"
viewBox="0 0 74340.72 40718.72"
 xmlns:xlink="http://www.w3.org/1999/xlink"
 xmlns:xodm="http://www.corel.com/coreldraw/odm/2003">
 <defs>
  <style type="text/css">
   <![CDATA[
    .fil0 {fill:#F3942A}
   ]]>
  </style>
 </defs>
 <g id="Layer_x0020_1">
  <metadata id="CorelCorpID_0Corel-Layer"/>
  <g id="_2940816729696">
   <path class="fil0" d="M50232.88 12946.86c2926.11,-6952.9 10824.3,-9235.04 17361.51,-5004.79 7673.08,4964.99 8574.86,16051.95 3891.82,23356.46 -6134.6,9568.74 -20148.42,11846.57 -27224.09,2340.19l-17333.87 -24708.82c-7651.11,-7338.68 -19683.22,9.95 -21973.62,8799.51 -2352.67,9027.72 3844.87,18014.65 12600.21,20364.79 4500.56,1207.74 8545.56,251.77 12843.31,-1064.45l307.7 531.73c-10298.49,6217.51 -23722.89,3109.08 -28951.06,-8448.57 -5386.34,-11906.27 2231.13,-26627.08 15309.54,-28868.09 12701.11,-2175.66 19771.79,9758.15 25592.71,18852.55 4010.37,6264.27 6834.91,16856 16185.33,15053.83 11625.51,-2240.01 16598.93,-20730.99 3971.74,-25231.59 -5139.58,-1832.01 -8958.14,644.84 -12580.9,4027.25l-0.33 0 0 0z"/>
  </g>
 </g>
</svg>
