<?xml version="1.0" encoding="UTF-8"?>
<!DOCTYPE svg PUBLIC "-//W3C//DTD SVG 1.1//EN" "http://www.w3.org/Graphics/SVG/1.1/DTD/svg11.dtd">
<!-- Creator: CorelDRAW 2021 (64-Bit) -->
<svg xmlns="http://www.w3.org/2000/svg" xml:space="preserve" width="44.32mm" height="44.32mm" version="1.1" style="shape-rendering:geometricPrecision; text-rendering:geometricPrecision; image-rendering:optimizeQuality; fill-rule:evenodd; clip-rule:evenodd"
viewBox="0 0 4432 4432"
 xmlns:xlink="http://www.w3.org/1999/xlink"
 xmlns:xodm="http://www.corel.com/coreldraw/odm/2003">
 <defs>
  <style type="text/css">
   <![CDATA[
    .fil2 {fill:#4D51AB;fill-rule:nonzero}
    .fil1 {fill:white;fill-rule:nonzero}
    .fil0 {fill:url(#id0);fill-rule:nonzero}
   ]]>
  </style>
  <linearGradient id="id0" gradientUnits="userSpaceOnUse" x1="46.42" y1="2163.09" x2="4385.58" y2="2189.55">
   <stop offset="0" style="stop-opacity:1; stop-color:#4D51AB"/>
   <stop offset="1" style="stop-opacity:1; stop-color:#55CEE3"/>
  </linearGradient>
 </defs>
 <g id="Layer_x0020_1">
  <metadata id="CorelCorpID_0Corel-Layer"/>
  <g id="_1624156732768">
   <path class="fil0" d="M4435.82 2213.64c0,-1223.87 -992.14,-2216.01 -2216.01,-2216.01 -1223.87,0 -2216.01,992.14 -2216.01,2216.01 0,1223.87 992.14,2216.01 2216.01,2216.01 1223.87,0 2216.01,-992.14 2216.01,-2216.01z"/>
   <path class="fil1" d="M3736.16 1536.51c-9.1,-20.09 -13.17,-39.44 -12.22,-58.04 1.32,-18.47 7.46,-35.02 18.39,-49.66 10.93,-14.64 26.32,-26.45 46.17,-35.44 14.81,-6.71 29.16,-10.48 43.02,-11.31 13.86,-0.82 26.85,1.16 39.03,5.94 12.27,5.05 23.33,12.75 33.17,23.13 10.08,10.26 18.55,22.93 25.38,38 3.54,7.79 6.27,16.54 8.25,26.24 2.23,9.59 3.02,19.68 2.36,30.27 0.02,6.05 -1.72,10.92 -5.19,14.61 -3.12,3.83 -7.04,6.52 -11.8,8.06 -4.5,1.43 -9.13,1.57 -13.89,0.4 -4.42,-1.04 -8.15,-3.28 -11.22,-6.73 -2.83,-3.56 -4.13,-8.43 -3.89,-14.59 0.61,-6.02 0.35,-11.96 -0.79,-17.81 -1.03,-5.59 -2.57,-10.65 -4.6,-15.17 -3.42,-7.54 -7.68,-13.62 -12.81,-18.26 -4.9,-4.76 -10.5,-8.12 -16.83,-10.09 -5.98,-1.84 -12.75,-2.41 -20.32,-1.71 -7.43,0.95 -15.42,3.36 -23.97,7.23 -16.59,7.51 -27.81,17.44 -33.73,29.8 -5.53,12.51 -4.95,26.17 1.77,40.99 2.04,4.52 4.71,9.07 7.99,13.64 3.52,4.45 7.8,8.57 12.86,12.34 4.79,3.89 7.46,8.13 8.02,12.71 0.58,4.59 -0.4,8.81 -2.89,12.67 -2.14,3.99 -5.4,7.14 -9.81,9.43 -4.05,2.44 -8.66,3.62 -13.84,3.54 -4.82,0.07 -9.42,-1.78 -13.84,-5.53 -8.15,-6.6 -15.03,-13.78 -20.66,-21.53 -5.88,-7.63 -10.59,-15.34 -14.11,-23.13z"/>
   <path class="fil1" d="M3734.68 1739.33c-1.98,-6.89 -1.74,-13.12 0.66,-18.69 2.44,-5.57 6.59,-9.63 12.44,-12.17 5.61,-2.46 12.14,-3.18 19.6,-2.16l66.49 9.81 -24.65 7.05 141.34 -116.59c6.13,-4.63 12.25,-7.37 18.3,-8.25 6.41,-0.68 12.02,0.87 16.83,4.66 5.14,3.97 8.97,10.33 11.49,19.08 2.03,7.16 1.95,13.36 -0.3,18.59 -1.87,5.41 -6.93,11.31 -15.16,17.68l-105.88 81.06 -3.65 -12.73 133.58 14.28c10.08,1.13 17.36,3.5 21.83,7.1 4.82,3.78 8.36,9.65 10.64,17.61 1.98,6.89 1.67,12.86 -0.9,17.9 -2.22,5.23 -6.17,9.07 -11.75,11.54 -5.53,2.73 -12.2,3.49 -20,2.28l-238.73 -32.83c-10.16,-1.39 -17.55,-4.16 -22.18,-8.29 -4.55,-3.86 -7.88,-9.5 -10,-16.93z"/>
   <path class="fil1" d="M3869.67 2027.72c-2.01,-16.15 0.16,-31.01 6.54,-44.59 6.67,-13.35 16.43,-22.91 29.34,-28.69l14.1 2.83 -25.45 3.18c-10.11,1.26 -18.23,-0.36 -24.37,-4.88 -6.11,-4.52 -9.79,-11.7 -11.03,-21.55 -1.22,-9.85 0.55,-17.86 5.34,-24.01 4.82,-5.89 12.31,-9.46 22.41,-10.73l233.58 -29.19c10.42,-1.29 18.54,0.33 24.39,4.88 6.14,4.79 9.87,12.25 11.11,22.37 1.25,9.85 -0.55,17.72 -5.37,23.6 -4.52,6.13 -11.98,9.84 -22.38,11.14l-97.29 12.16 -0.61 -4.93c12.86,2.84 23.9,9.94 33.1,21.3 9.21,11.35 14.79,24.97 16.78,40.84 2.22,17.79 -0.08,33.78 -6.93,47.98 -6.86,14.19 -17.6,25.96 -32.28,35.3 -14.69,9.34 -32.81,15.36 -54.46,18.06 -21.61,2.7 -40.82,1.35 -57.59,-4.06 -16.81,-5.4 -30.3,-14.28 -40.46,-26.63 -10.11,-12.07 -16.27,-26.87 -18.47,-44.38zm44.08 -24.27c1.11,8.75 4.24,16.14 9.45,22.16 5.24,6.3 12.3,10.7 21.24,13.19 9.24,2.74 20.56,3.27 33.98,1.59 19.97,-2.49 34.1,-8.43 42.38,-17.8 8.55,-9.41 11.99,-20.68 10.35,-33.81 -1.09,-8.76 -4.1,-16.31 -9.08,-22.63 -4.92,-6.06 -12.01,-10.46 -21.24,-13.19 -8.95,-2.77 -20.14,-3.32 -33.55,-1.64 -19.98,2.49 -34.37,8.46 -43.21,17.9 -8.55,9.41 -11.98,20.82 -10.32,34.23z"/>
   <path class="fil1" d="M3878.67 2275.08c0.77,-23.99 5.69,-44.53 14.76,-61.63 9.37,-16.81 22.04,-29.66 38.05,-38.54 16.27,-8.59 35.16,-12.55 56.67,-11.88 20.96,0.66 39.13,5.65 54.59,14.96 15.69,9.32 27.72,21.98 36.03,37.97 8.6,16.27 12.6,34.47 11.96,54.59 -0.45,14.61 -3.36,27.77 -8.68,39.46 -5.08,11.71 -12.27,21.69 -21.64,29.96 -9.1,8.26 -20.19,14.4 -33.28,18.4 -12.81,4.02 -27.07,5.78 -42.79,5.28 -5.24,-0.16 -9.18,-1.94 -11.85,-5.34 -2.36,-3.38 -3.47,-8.24 -3.25,-14.59l4.07 -129.83 32.25 1.01 -3.28 104.2 -5.58 -6.8c11.32,0.36 20.74,-1 28.28,-4.08 7.83,-3.06 13.76,-7.7 17.81,-13.92 4.07,-5.95 6.22,-13.47 6.51,-22.56 0.32,-10.2 -1.75,-18.96 -6.22,-26.27 -4.44,-7.32 -11.03,-13.04 -19.74,-17.18 -8.7,-4.14 -19.23,-6.4 -31.64,-6.79l-3.31 -0.1c-20.95,-0.66 -36.54,3.68 -46.78,13.02 -10.24,9.61 -15.63,24.07 -16.24,43.36 -0.21,6.62 0.37,14.22 1.74,22.82 1.41,8.6 3.76,16.67 7.12,24.23 2.83,6.44 3.63,12.12 2.36,17.05 -0.98,4.93 -3.31,8.72 -6.96,11.36 -3.68,2.65 -7.86,4.03 -12.57,4.16 -4.68,0.41 -9.34,-0.7 -13.97,-3.33 -4.31,-2.62 -7.91,-6.87 -10.77,-12.76 -4.95,-9.53 -8.47,-20.27 -10.58,-32.2 -2.38,-11.66 -3.42,-23.01 -3.07,-34.03z"/>
   <path class="fil1" d="M3863.69 2452.28c1.62,-10.35 5.59,-17.82 11.91,-22.42 6.3,-4.59 14.5,-6.09 24.58,-4.5l145.07 22.84c10.08,1.58 17.3,5.37 21.67,11.36 4.58,6.31 6.11,14.23 4.63,23.77 -1.56,9.8 -5.45,16.87 -11.72,21.18 -5.98,4.37 -14.02,5.75 -24.11,4.17l-21.24 -3.35 0.63 -4.09c15.83,5.85 27.36,15.06 34.61,27.65 7.22,12.58 10,27.82 8.28,45.69 -0.5,6.9 -3.09,11.8 -7.75,14.7 -4.42,3.21 -11.14,4.25 -20.16,3.11 -8.55,-0.79 -14.92,-3.61 -19.18,-8.47 -4.32,-4.59 -6.27,-11.6 -5.9,-21.03l0.66 -9.53c1.06,-15.74 -1.62,-28.03 -8.02,-36.86 -6.48,-8.56 -16.93,-13.97 -31.38,-16.24l-76.01 -11.97c-10.08,-1.59 -17.41,-5.53 -21.99,-11.84 -4.66,-6.03 -6.16,-14.09 -4.58,-24.17z"/>
   <path class="fil1" d="M3782.81 2773.9c4.13,-11.4 9.47,-22.83 15.95,-34.26 6.43,-11.17 13.87,-20.77 22.39,-28.84 4.47,-4.24 9.07,-6.8 13.81,-7.73 4.89,-0.58 9.39,0.03 13.44,1.8 4.05,1.77 7.33,4.42 9.87,7.99 2.41,3.81 3.44,7.86 3.07,12.12 -0.21,4.63 -2.25,9.02 -6.11,13.18 -8.29,9.02 -14.93,17.62 -19.95,25.77 -5,8.14 -9.08,16.51 -12.17,25.05 -4.08,11.17 -5.3,19.79 -3.73,25.96 1.74,6.51 5.47,10.79 11.19,12.86 5.16,1.87 9.68,1.61 13.49,-0.82 3.81,-2.41 7.41,-6.7 10.82,-12.78l22.23 -38.16c8.68,-15.02 19.05,-25.34 31.06,-30.95 12.17,-5.27 25.27,-5.35 39.26,-0.27 12.97,4.74 22.78,12.41 29.48,23.05 6.96,10.74 10.58,23.36 10.9,37.86 0.45,14.84 -2.28,30.43 -8.2,46.75 -4.24,11.67 -9.18,22.07 -14.85,31.14 -5.66,9.1 -12.46,17.33 -20.42,24.72 -4.02,3.81 -8.34,5.92 -12.86,6.32 -4.66,0.66 -8.92,-0.16 -12.78,-2.44 -3.94,-2.01 -7.14,-4.94 -9.58,-8.75 -2.41,-3.81 -3.38,-7.99 -2.94,-12.52 0.4,-4.26 2.57,-8.62 6.51,-13.04 6.91,-6.88 12.41,-13.55 16.51,-19.98 4.37,-6.32 7.73,-12.75 10.08,-19.23 4.24,-11.64 5.35,-20.77 3.34,-27.39 -1.72,-6.51 -5.45,-10.79 -11.17,-12.86 -4.39,-1.61 -8.68,-1.53 -12.83,0.19 -3.97,2.06 -7.62,6.03 -10.9,11.88l-22.25 38.13c-8.97,15.82 -19.34,26.56 -31.09,32.27 -11.51,5.8 -24.5,6.06 -39.03,0.77 -19.68,-7.14 -32.41,-20.58 -38.18,-40.29 -5.58,-19.35 -3.7,-41.83 5.64,-67.5z"/>
   <path class="fil1" d="M3677.58 3008.29c11.38,-21.14 24.96,-37.3 40.72,-48.55 15.88,-10.87 32.97,-16.69 51.25,-17.49 18.42,-0.42 37.07,4.48 56.02,14.69 18.44,9.95 32.49,22.54 42.14,37.76 9.9,15.37 15.01,32.04 15.32,50.08 0.4,18.39 -4.15,36.46 -13.7,54.19 -6.93,12.86 -15.4,23.33 -25.4,31.4 -9.76,8.23 -20.67,13.95 -32.73,17.15 -11.83,3.33 -24.5,3.86 -37.99,1.61 -13.29,-2.14 -26.83,-6.93 -40.67,-14.39 -4.6,-2.49 -7.33,-5.85 -8.2,-10.08 -0.61,-4.08 0.58,-8.92 3.6,-14.5l61.64 -114.35 28.39 15.32 -49.47 91.75 -1.94 -8.57c9.95,5.37 18.97,8.36 27.1,8.97 8.38,0.77 15.77,-0.74 22.17,-4.5 6.27,-3.49 11.59,-9.26 15.9,-17.27 4.84,-8.97 6.91,-17.73 6.17,-26.28 -0.72,-8.54 -4.05,-16.59 -9.98,-24.18 -5.95,-7.59 -14.37,-14.31 -25.29,-20.22l-2.91 -1.56c-18.47,-9.94 -34.35,-13.04 -47.65,-9.26 -13.47,4.05 -24.77,14.56 -33.92,31.54 -3.15,5.82 -6.04,12.91 -8.63,21.22 -2.59,8.31 -4.07,16.59 -4.47,24.85 -0.32,7.01 -2.17,12.46 -5.48,16.29 -3.09,3.97 -6.88,6.33 -11.32,7.07 -4.47,0.71 -8.84,0.1 -13.1,-1.88 -4.39,-1.75 -8.07,-4.82 -11.01,-9.23 -2.69,-4.29 -4.02,-9.69 -3.94,-16.22 -0.16,-10.75 1.48,-21.94 4.92,-33.55 3.07,-11.51 7.23,-22.09 12.46,-31.81z"/>
   <path class="fil1" d="M3544.23 3214.59c13.26,-17.62 28.29,-30.51 45.06,-38.58 16.83,-7.7 34.29,-10.26 52.39,-7.72 18.1,2.56 35.83,10.4 53.26,23.49 12.99,9.77 23.18,20.54 30.56,32.31 7.38,11.75 11.88,24.1 13.52,37.07 1.48,13.2 0.03,26.59 -4.34,40.21 -4.15,13.79 -11.22,27.28 -21.16,40.51 -5.14,6.85 -11.49,13.44 -19.05,19.85 -7.33,6.56 -15.83,12.09 -25.43,16.58 -5.29,2.94 -10.4,3.76 -15.29,2.47 -4.87,-0.88 -9.11,-3.05 -12.76,-6.46 -3.41,-3.25 -5.74,-7.28 -7.01,-12.01 -1.19,-4.37 -1.03,-8.71 0.53,-13.07 1.77,-4.18 5.4,-7.65 10.93,-10.4 5.58,-2.38 10.66,-5.45 15.24,-9.26 4.42,-3.57 8.12,-7.36 11.08,-11.33 4.98,-6.61 8.29,-13.28 9.87,-20 1.83,-6.56 2.09,-13.1 0.77,-19.6 -1.24,-6.14 -3.99,-12.33 -8.23,-18.63 -4.42,-6.09 -10.37,-11.93 -17.86,-17.57 -14.55,-10.95 -28.65,-16.03 -42.33,-15.27 -13.63,1.14 -25.35,8.21 -35.11,21.22 -2.99,3.97 -5.69,8.47 -8.12,13.55 -2.23,5.24 -3.79,10.98 -4.66,17.2 -1.11,6.08 -3.55,10.45 -7.3,13.15 -3.76,2.7 -7.91,3.89 -12.49,3.54 -4.53,0.06 -8.86,-1.29 -12.99,-4.07 -4.08,-2.38 -7.33,-5.85 -9.77,-10.43 -2.35,-4.2 -2.96,-9.12 -1.79,-14.81 1.9,-10.32 4.89,-19.79 8.96,-28.44 3.89,-8.84 8.39,-16.67 13.52,-23.5z"/>
   <path class="fil1" d="M3397.84 3383.58c12.22,-11.96 24.58,-19.63 37.1,-23.02 12.51,-3.39 25.18,-2.49 37.99,2.73 12.83,5.58 25.88,15.18 39.21,28.78l65.43 66.78c7.33,7.49 10.96,14.93 10.88,22.33 -0.27,7.6 -3.95,14.87 -11.04,21.83 -7.09,6.96 -14.44,10.48 -22.04,10.61 -7.62,0.11 -15.08,-3.57 -22.43,-11.06l-66.57 -67.97c-8.5,-8.65 -16.64,-13.41 -24.45,-14.29 -7.59,-0.66 -15.24,2.78 -22.91,10.3 -8.47,8.3 -12.46,18.01 -12.01,29.13 0.47,11.51 5.53,22.2 15.18,32.04l59.64 60.88c7.36,7.49 10.98,14.92 10.9,22.36 -0.26,7.59 -3.97,14.87 -11.06,21.82 -7.28,7.12 -14.63,10.67 -22.04,10.59 -7.59,0.13 -15.08,-3.57 -22.41,-11.06l-102.79 -104.88c-14.84,-15.19 -15.11,-29.82 -0.71,-43.9 7.09,-6.96 14.44,-10.29 22.04,-10.03 7.59,0.3 14.97,4.08 22.11,11.36l19.4 19.79 -15.72 -7.17c-5.5,-14.29 -6.93,-28.16 -4.26,-41.6 2.68,-13.41 9.53,-25.53 20.56,-36.35z"/>
   <path class="fil1" d="M3240.1 3524.71c8.36,-6.32 16.4,-8.97 24.13,-7.91 7.72,1.08 14.65,5.69 20.82,13.81l88.69 117.05c6.16,8.15 8.73,15.88 7.72,23.23 -1.06,7.73 -5.45,14.5 -13.15,20.32 -7.91,6.01 -15.61,8.39 -23.12,7.14 -7.36,-1 -14.1,-5.58 -20.27,-13.7l-12.99 -17.15 3.31 -2.51c7.35,15.19 9.28,29.85 5.77,43.92 -3.52,14.08 -12.1,26.96 -25.72,38.68 -5.16,4.61 -10.43,6.33 -15.77,5.19 -5.42,-0.74 -10.98,-4.66 -16.7,-11.75 -5.61,-6.48 -8.25,-12.94 -7.96,-19.39 0.08,-6.3 3.52,-12.7 10.35,-19.24l7.06 -6.43c11.72,-10.58 18.31,-21.27 19.79,-32.09 1.27,-10.66 -2.49,-21.8 -11.32,-33.47l-46.46 -61.33c-6.17,-8.12 -8.71,-16.06 -7.65,-23.79 0.85,-7.56 5.34,-14.42 13.47,-20.58z"/>
   <path class="fil1" d="M3105.11 3619.96c8.59,-5.48 16.8,-7.25 24.55,-5.32 7.67,2.3 14.42,7.99 20.19,17.07l75.93 119.38c5.9,9.31 8.2,17.8 6.91,25.5 -1.4,8.1 -6.4,14.87 -15.03,20.35 -8.36,5.32 -16.4,6.82 -24.08,4.52 -7.75,-1.93 -14.6,-7.54 -20.53,-16.85l-75.91 -119.38c-5.79,-9.08 -8.09,-17.57 -6.93,-25.51 1.32,-7.7 6.27,-14.28 14.9,-19.76zm130.78 205.61c9.76,-6.22 18.73,-8.84 26.91,-7.81 8.07,1.4 14.76,6.27 20.11,14.66 5.47,8.6 7.06,16.75 4.73,24.42 -2.38,8.07 -8.46,15.21 -18.23,21.43 -9.79,6.22 -18.7,8.63 -26.8,7.22 -7.91,-1.16 -14.63,-6.05 -20.11,-14.65 -5.32,-8.39 -6.9,-16.54 -4.73,-24.45 2.3,-7.67 8.33,-14.61 18.12,-20.82z"/>
   <path class="fil1" d="M2952.89 3704.78c16.8,-8.94 32.41,-13.67 46.83,-14.18 14.18,-0.37 26.91,3.31 38.21,11.04 11.08,7.85 20.95,19.95 29.63,36.24l36.59 68.64 15.32 -8.18c6.83,-3.62 13.15,-4.66 19,-3.07 5.58,1.69 10.08,5.72 13.44,12.04 3.63,6.83 4.53,12.91 2.7,18.26 -1.96,5.71 -6.32,10.39 -13.15,14.05l-15.32 8.14 14.79 27.76c4.92,9.26 6.19,17.49 3.78,24.71 -2.27,7.46 -7.8,13.52 -16.56,18.18 -8.99,4.81 -17.12,6 -24.34,3.6 -7.09,-2.15 -13.1,-7.86 -18.02,-17.12l-14.79 -27.73 -34.69 18.47c-6.8,3.65 -13.01,4.6 -18.6,2.91 -5.47,-1.48 -10.02,-5.61 -13.65,-12.44 -3.39,-6.32 -4.21,-12.27 -2.51,-17.88 1.72,-5.59 5.98,-10.22 12.78,-13.84l34.68 -18.47 -35.4 -66.46c-5.45,-10.21 -11.85,-16.64 -19.21,-19.29 -7.59,-2.51 -16.61,-1.01 -27.06,4.58 -3.65,1.96 -6.88,4.12 -9.66,6.53 -2.75,2.44 -5.42,4.47 -7.96,6.14 -3.28,2.06 -6.67,2.46 -10.16,1.19 -3.36,-1.03 -7.12,-5.42 -11.28,-13.2 -3.09,-5.85 -4.84,-11.48 -5.23,-16.91 -0.4,-5.42 1.32,-10.4 5.16,-14.92 2.51,-2.91 6.37,-6.22 11.58,-9.95 4.85,-3.81 9.21,-6.77 13.1,-8.84z"/>
   <path class="fil1" d="M2827.24 3680.55c6.69,-2.59 12.91,-2.94 18.68,-1.03 5.77,1.9 10.19,5.66 13.26,11.27 2.96,5.34 4.28,11.8 3.94,19.31l-3.68 67.13 -9.26 -23.92 129.04 130.07c5.18,5.69 8.46,11.51 9.89,17.46 1.27,6.3 0.24,12.04 -3.09,17.17 -3.5,5.51 -9.48,9.9 -17.94,13.18 -6.96,2.7 -13.13,3.17 -18.55,1.43 -5.56,-1.38 -11.91,-5.88 -19,-13.47l-90.43 -98.03 12.36 -4.79 -1.99 134.36c-0.18,10.13 -1.88,17.59 -5.05,22.36 -3.34,5.15 -8.87,9.2 -16.57,12.22 -6.69,2.59 -12.64,2.83 -17.91,0.74 -5.4,-1.75 -9.6,-5.29 -12.57,-10.66 -3.22,-5.27 -4.6,-11.83 -4.1,-19.71l10.8 -240.75c0.47,-10.24 2.54,-17.83 6.22,-22.81 3.44,-4.89 8.75,-8.73 15.95,-11.53z"/>
   <path class="fil1" d="M2555.32 3994.26c6.28,2.65 10.38,6.46 12.29,11.46 1.68,5.32 0.95,11.3 -2.18,17.94l-18.69 40.67 -11 -11.25 44.09 -9.92c6.99,-1.67 12.93,-1.22 17.81,1.38 4.92,2.85 7.89,7.54 8.93,14.07 1.04,6.54 -0.37,11.8 -4.2,15.74 -3.8,4.24 -9.29,6.65 -16.45,7.23l-45.06 3.78 6.51 -14.42 30.47 33.68c5.08,5.64 7.63,11.09 7.63,16.41 -0.23,5.61 -2.96,10.37 -8.21,14.28 -5.16,4.45 -10.52,5.85 -16.08,4.21 -5.52,-1.35 -10.32,-5.18 -14.4,-11.53l-22.04 -33.37 7.35 -1.16 -11.05 38.6c-1.64,7.25 -4.88,12.38 -9.71,15.37 -5.06,3.31 -10.73,3.65 -17.01,1.03 -6.56,-2.59 -10.67,-6.56 -12.35,-11.88 -1.64,-5.02 -0.76,-10.9 2.65,-17.59l18.69 -40.64 10.58 11.3 -44.01 10.32c-7,1.66 -12.96,1.08 -17.88,-1.78 -4.87,-2.56 -7.83,-7.11 -8.87,-13.65 -1.03,-6.56 0.35,-11.93 4.14,-16.17 3.84,-3.96 9.35,-6.21 16.52,-6.8l44.99 -4.2 -6.57 14.02 -30.35 -32.89c-5.31,-5.29 -7.96,-10.61 -7.97,-15.9 0,-5.32 2.71,-10.21 8.14,-14.71 5.43,-4.47 10.91,-6.06 16.43,-4.68 5.29,1.66 9.96,5.53 13.99,11.59l22.58 34.13 -7.35 1.16 11.33 -39.5c1.96,-7.01 5.33,-12.14 10.12,-15.43 4.55,-2.96 9.95,-3.25 16.19,-0.9z"/>
   <path class="fil1" d="M713.82 2918.89c9.49,19.93 13.93,39.19 13.32,57.81 -0.97,18.47 -6.78,35.14 -17.42,49.98 -10.65,14.85 -25.81,26.96 -45.48,36.33 -14.69,6.99 -28.96,11.03 -42.79,12.15 -13.84,1.08 -26.89,-0.67 -39.13,-5.22 -12.37,-4.79 -23.58,-12.27 -33.62,-22.46 -10.29,-10.08 -19,-22.57 -26.11,-37.52 -3.68,-7.72 -6.6,-16.4 -8.75,-26.09 -2.41,-9.52 -3.39,-19.6 -2.94,-30.21 -0.13,-6.03 1.51,-10.96 4.91,-14.71 3.03,-3.89 6.91,-6.64 11.63,-8.28 4.47,-1.51 9.1,-1.75 13.89,-0.67 4.42,0.96 8.21,3.13 11.35,6.51 2.89,3.52 4.28,8.36 4.16,14.53 -0.48,6.03 -0.11,11.96 1.14,17.78 1.13,5.58 2.76,10.61 4.89,15.08 3.56,7.46 7.95,13.47 13.17,18.02 4.96,4.66 10.64,7.91 17.02,9.76 6.01,1.72 12.78,2.17 20.33,1.32 7.42,-1.08 15.36,-3.65 23.83,-7.69 16.43,-7.81 27.48,-17.97 33.15,-30.46 5.3,-12.59 4.45,-26.25 -2.54,-40.93 -2.14,-4.47 -4.89,-8.97 -8.26,-13.49 -3.61,-4.37 -7.98,-8.42 -13.09,-12.09 -4.86,-3.79 -7.62,-7.97 -8.27,-12.55 -0.65,-4.57 0.23,-8.81 2.65,-12.72 2.05,-4.02 5.26,-7.25 9.62,-9.63 4,-2.52 8.59,-3.79 13.77,-3.79 4.81,-0.16 9.47,1.59 13.96,5.24 8.27,6.46 15.28,13.5 21.06,21.14 6.03,7.52 10.88,15.14 14.55,22.86z"/>
   <path class="fil1" d="M711.37 2716.01c2.1,6.85 2,13.07 -0.32,18.71 -2.32,5.6 -6.38,9.73 -12.21,12.38 -5.55,2.59 -12.07,3.44 -19.55,2.54l-66.67 -8.52 24.52 -7.52 -139.07 119.28c-6.05,4.73 -12.1,7.62 -18.14,8.6 -6.39,0.79 -12.02,-0.64 -16.91,-4.34 -5.23,-3.86 -9.17,-10.16 -11.85,-18.87 -2.18,-7.11 -2.21,-13.3 -0.08,-18.57 1.79,-5.45 6.74,-11.46 14.83,-17.97l104.32 -83.07 3.88 12.64 -133.85 -11.72c-10.09,-0.92 -17.41,-3.15 -21.95,-6.67 -4.89,-3.67 -8.54,-9.49 -10.97,-17.41 -2.11,-6.85 -1.92,-12.8 0.56,-17.91 2.13,-5.26 5.98,-9.18 11.53,-11.75 5.48,-2.83 12.13,-3.73 19.96,-2.67l239.32 28.23c10.18,1.22 17.62,3.84 22.32,7.86 4.62,3.79 8.06,9.37 10.33,16.75z"/>
   <path class="fil1" d="M570.84 2430.01c2.33,16.11 0.43,31.01 -5.67,44.71 -6.42,13.46 -16.02,23.21 -28.81,29.23l-14.16 -2.55 25.39 -3.67c10.1,-1.45 18.25,0.02 24.46,4.42 6.21,4.4 10.02,11.51 11.44,21.34 1.41,9.82 -0.21,17.86 -4.89,24.11 -4.7,5.97 -12.11,9.69 -22.21,11.14l-232.98 33.6c-10.38,1.5 -18.53,0.03 -24.46,-4.41 -6.25,-4.67 -10.1,-12.06 -11.56,-22.16 -1.41,-9.83 0.23,-17.73 4.94,-23.7 4.4,-6.21 11.79,-10.06 22.16,-11.55l97.04 -14 0.71 4.92c-12.91,-2.6 -24.08,-9.49 -33.49,-20.67 -9.42,-11.18 -15.26,-24.69 -17.55,-40.52 -2.56,-17.75 -0.55,-33.78 6.02,-48.1 6.57,-14.33 17.11,-26.29 31.6,-35.91 14.5,-9.61 32.53,-15.97 54.1,-19.08 21.56,-3.11 40.79,-2.13 57.69,2.96 16.89,5.09 30.54,13.71 40.93,25.86 10.35,11.89 16.78,26.56 19.3,44.03zm-43.61 25.1c-1.26,-8.73 -4.54,-16.06 -9.86,-21.98 -5.35,-6.2 -12.51,-10.46 -21.48,-12.79 -9.29,-2.56 -20.62,-2.88 -34,-0.95 -19.92,2.88 -33.94,9.08 -42.04,18.61 -8.37,9.56 -11.61,20.9 -9.72,34 1.26,8.73 4.43,16.22 9.51,22.45 5.03,5.96 12.2,10.23 21.48,12.79 9.02,2.6 20.21,2.93 33.59,1.01 19.92,-2.88 34.21,-9.12 42.86,-18.73 8.37,-9.56 11.59,-21.03 9.66,-34.41z"/>
   <path class="fil1" d="M557.22 2183.55c-0.3,23.99 -4.83,44.62 -13.6,61.89 -9.03,16.99 -21.47,30.07 -37.3,39.25 -16.11,8.91 -34.92,13.23 -56.43,12.96 -20.96,-0.26 -39.24,-4.9 -54.85,-13.92 -15.89,-9.02 -28.14,-21.44 -36.77,-37.27 -8.91,-16.11 -13.24,-34.23 -12.99,-54.36 0.18,-14.62 2.83,-27.82 7.94,-39.62 4.83,-11.8 11.85,-21.92 21.06,-30.35 8.93,-8.44 19.9,-14.79 32.92,-19.04 12.74,-4.26 26.97,-6.29 42.69,-6.1 5.24,0.07 9.22,1.77 11.93,5.11 2.44,3.35 3.63,8.19 3.55,14.53l-1.61 129.89 -32.26 -0.4 1.29 -104.24 5.7 6.69c-11.3,-0.14 -20.7,1.4 -28.19,4.62 -7.76,3.21 -13.61,7.96 -17.55,14.26 -3.93,6.02 -5.96,13.58 -6.07,22.68 -0.13,10.2 2.11,18.92 6.71,26.15 4.6,7.22 11.29,12.82 20.06,16.79 8.78,3.97 19.37,6.03 31.79,6.19l3.3 0.04c20.96,0.26 36.47,-4.38 46.51,-13.91 10.05,-9.8 15.2,-24.36 15.44,-43.66 0.08,-6.62 -0.66,-14.21 -2.2,-22.78 -1.55,-8.57 -4.08,-16.6 -7.57,-24.09 -2.95,-6.38 -3.85,-12.05 -2.68,-17 0.89,-4.95 3.14,-8.79 6.76,-11.5 3.62,-2.71 7.77,-4.18 12.46,-4.4 4.7,-0.49 9.38,0.53 14.03,3.07 4.38,2.54 8.06,6.72 11.02,12.55 5.12,9.44 8.85,20.11 11.19,31.99 2.61,11.62 3.85,22.95 3.72,33.98z"/>
   <path class="fil1" d="M568.89 2005.34c-1.44,10.38 -5.26,17.93 -11.48,22.64 -6.22,4.71 -14.38,6.37 -24.49,4.97l-145.48 -20.09c-10.11,-1.4 -17.4,-5.05 -21.87,-10.96 -4.71,-6.22 -6.41,-14.11 -5.09,-23.67 1.36,-9.84 5.13,-16.97 11.31,-21.41 5.91,-4.47 13.92,-6.01 24.02,-4.61l21.31 2.94 -0.56 4.1c-15.94,-5.55 -27.65,-14.54 -35.11,-26.99 -7.47,-12.45 -10.53,-27.62 -9.17,-45.53 0.4,-6.91 2.89,-11.85 7.48,-14.84 4.35,-3.29 11.06,-4.46 20.11,-3.48 8.55,0.62 14.99,3.32 19.35,8.1 4.38,4.5 6.48,11.47 6.29,20.91l-0.48 9.54c-0.78,15.76 2.12,27.99 8.72,36.7 6.63,8.43 17.18,13.65 31.66,15.65l76.22 10.53c10.11,1.39 17.52,5.2 22.23,11.42 4.75,5.95 6.42,13.97 5.03,24.08z"/>
   <path class="fil1" d="M643.61 1682.38c-3.93,11.48 -9.03,23 -15.32,34.55 -6.19,11.29 -13.46,21.04 -21.81,29.26 -4.4,4.33 -8.95,7 -13.67,8.01 -4.89,0.66 -9.38,0.14 -13.46,-1.55 -4.09,-1.69 -7.43,-4.29 -10.02,-7.8 -2.49,-3.77 -3.6,-7.79 -3.3,-12.06 0.12,-4.62 2.08,-9.05 5.86,-13.3 8.1,-9.18 14.57,-17.89 19.44,-26.14 4.86,-8.25 8.76,-16.68 11.71,-25.29 3.84,-11.22 4.91,-19.89 3.21,-26.01 -1.87,-6.47 -5.67,-10.68 -11.41,-12.65 -5.22,-1.78 -9.72,-1.42 -13.49,1.07 -3.77,2.5 -7.29,6.84 -10.56,13.01l-21.5 38.55c-8.41,15.2 -18.56,25.71 -30.47,31.55 -12.08,5.49 -25.16,5.82 -39.25,1 -13.05,-4.46 -23.02,-11.95 -29.92,-22.47 -7.15,-10.61 -11.02,-23.16 -11.61,-37.64 -0.75,-14.83 1.68,-30.47 7.3,-46.91 4.02,-11.74 8.77,-22.22 14.25,-31.42 5.48,-9.2 12.13,-17.56 19.95,-25.09 3.96,-3.89 8.2,-6.08 12.74,-6.57 4.63,-0.75 8.9,-0.02 12.81,2.19 3.99,1.95 7.24,4.81 9.74,8.58 2.5,3.77 3.56,7.92 3.17,12.45 -0.29,4.28 -2.38,8.66 -6.25,13.17 -6.77,7.01 -12.14,13.77 -16.12,20.28 -4.23,6.42 -7.47,12.89 -9.7,19.42 -4.02,11.74 -4.96,20.89 -2.83,27.45 1.86,6.47 5.67,10.69 11.41,12.65 4.44,1.51 8.71,1.37 12.82,-0.42 3.95,-2.15 7.51,-6.18 10.7,-12.09l21.49 -38.55c8.67,-15.98 18.83,-26.94 30.48,-32.86 11.39,-6.02 24.38,-6.53 39,-1.53 19.83,6.79 32.81,19.97 38.94,39.56 5.95,19.23 4.51,41.76 -4.33,67.6z"/>
   <path class="fil1" d="M744.27 1446.17c-10.98,21.33 -24.25,37.76 -39.8,49.3 -15.67,11.17 -32.64,17.32 -50.91,18.47 -18.39,0.77 -37.15,-3.77 -56.27,-13.61 -18.64,-9.6 -32.93,-21.91 -42.87,-36.95 -10.18,-15.17 -15.6,-31.76 -16.25,-49.78 -0.78,-18.39 3.44,-36.53 12.66,-54.43 6.68,-13 14.95,-23.63 24.79,-31.91 9.6,-8.39 20.4,-14.31 32.4,-17.75 11.76,-3.56 24.41,-4.34 37.96,-2.33 13.3,1.88 26.94,6.42 40.91,13.61 4.66,2.4 7.46,5.7 8.4,9.91 0.69,4.07 -0.41,8.93 -3.31,14.57l-59.45 115.5 -28.69 -14.76 47.71 -92.7 2.12 8.54c-10.06,-5.18 -19.15,-7.99 -27.29,-8.46 -8.38,-0.59 -15.74,1.05 -22.07,4.92 -6.21,3.63 -11.4,9.49 -15.56,17.58 -4.67,9.08 -6.57,17.87 -5.68,26.39 0.89,8.53 4.37,16.52 10.45,23.99 6.08,7.48 14.64,14.05 25.68,19.73l2.94 1.52c18.64,9.59 34.58,12.36 47.82,8.32 13.37,-4.28 24.48,-15.01 33.31,-32.17 3.03,-5.89 5.77,-13.01 8.21,-21.37 2.44,-8.36 3.77,-16.67 3.99,-24.93 0.2,-7.03 1.93,-12.5 5.18,-16.41 3.01,-4.03 6.74,-6.45 11.19,-7.27 4.45,-0.81 8.82,-0.26 13.12,1.64 4.42,1.65 8.15,4.66 11.18,9.01 2.79,4.23 4.2,9.61 4.25,16.15 0.37,10.73 -1.06,21.94 -4.28,33.62 -2.84,11.56 -6.79,22.24 -11.84,32.06z"/>
   <path class="fil1" d="M873.66 1237.36c-12.93,17.89 -27.7,31.03 -44.32,39.43 -16.68,8.02 -34.09,10.92 -52.23,8.71 -18.13,-2.22 -36.03,-9.71 -53.69,-22.47 -13.19,-9.53 -23.58,-20.1 -31.18,-31.72 -7.6,-11.61 -12.34,-23.89 -14.22,-36.82 -1.73,-13.15 -0.53,-26.58 3.58,-40.28 3.9,-13.86 10.69,-27.5 20.38,-40.91 5.01,-6.93 11.23,-13.66 18.67,-20.19 7.22,-6.7 15.59,-12.39 25.11,-17.08 5.24,-3.02 10.33,-3.93 15.26,-2.75 4.87,0.79 9.15,2.87 12.85,6.22 3.48,3.2 5.89,7.16 7.25,11.88 1.29,4.33 1.2,8.69 -0.27,13.07 -1.69,4.23 -5.27,7.77 -10.73,10.62 -5.53,2.47 -10.55,5.65 -15.06,9.54 -4.35,3.66 -7.98,7.5 -10.88,11.52 -4.85,6.71 -8.01,13.44 -9.49,20.2 -1.71,6.6 -1.84,13.13 -0.4,19.62 1.38,6.1 4.24,12.25 8.6,18.46 4.52,5.99 10.58,11.73 18.18,17.23 14.76,10.66 28.96,15.48 42.63,14.47 13.6,-1.4 25.17,-8.7 34.7,-21.88 2.9,-4.03 5.53,-8.6 7.86,-13.72 2.11,-5.27 3.56,-11.04 4.33,-17.29 1,-6.08 3.34,-10.51 7.05,-13.28 3.7,-2.77 7.84,-4.03 12.42,-3.78 4.53,-0.13 8.88,1.14 13.06,3.83 4.13,2.3 7.44,5.71 9.95,10.25 2.45,4.15 3.14,9.07 2.08,14.77 -1.69,10.35 -4.5,19.89 -8.43,28.62 -3.7,8.89 -8.06,16.8 -13.06,23.73z"/>
   <path class="fil1" d="M1016.87 1065.57c-11.99,12.2 -24.21,20.11 -36.66,23.73 -12.45,3.62 -25.13,2.95 -38.04,-2.01 -12.92,-5.35 -26.17,-14.69 -39.74,-28.03l-66.68 -65.54c-7.48,-7.34 -11.25,-14.72 -11.31,-22.13 0.12,-7.61 3.67,-14.95 10.63,-22.03 6.96,-7.08 14.24,-10.76 21.84,-11.02 7.61,-0.26 15.15,3.28 22.62,10.63l67.86 66.69c8.66,8.51 16.89,13.12 24.7,13.83 7.61,0.52 15.18,-3.06 22.72,-10.73 8.31,-8.46 12.13,-18.24 11.45,-29.35 -0.69,-11.5 -5.95,-22.09 -15.78,-31.75l-60.79 -59.74c-7.47,-7.34 -11.24,-14.72 -11.3,-22.13 0.13,-7.61 3.67,-14.95 10.63,-22.03 7.15,-7.28 14.43,-10.95 21.84,-11.02 7.61,-0.26 15.15,3.29 22.62,10.63l104.75 102.94c15.14,14.88 15.66,29.51 1.55,43.87 -6.96,7.08 -14.24,10.55 -21.85,10.42 -7.61,-0.12 -15.05,-3.76 -22.33,-10.92l-19.77 -19.42 15.86 6.88c5.78,14.19 7.46,28.02 5.04,41.5 -2.42,13.47 -9.04,25.72 -19.86,36.73z"/>
   <path class="fil1" d="M1171.88 921.53c-8.23,6.49 -16.22,9.27 -23.97,8.35 -7.74,-0.92 -14.77,-5.39 -21.09,-13.4l-90.89 -115.36c-6.31,-8.01 -9.03,-15.7 -8.16,-23.06 0.92,-7.75 5.17,-14.61 12.76,-20.58 7.79,-6.14 15.46,-8.67 22.99,-7.58 7.36,0.87 14.19,5.31 20.51,13.33l13.31 16.9 -3.25 2.56c-7.64,-15.05 -9.83,-29.65 -6.59,-43.79 3.25,-14.15 11.58,-27.2 24.98,-39.16 5.07,-4.7 10.3,-6.54 15.67,-5.51 5.43,0.65 11.06,4.46 16.91,11.44 5.72,6.37 8.5,12.79 8.32,19.25 0.04,6.29 -3.28,12.76 -9.96,19.43l-6.96 6.54c-11.5,10.81 -17.89,21.64 -19.18,32.49 -1.07,10.67 2.92,21.75 11.97,33.23l47.61 60.44c6.32,8.02 9.02,15.9 8.1,23.65 -0.7,7.57 -5.06,14.52 -13.08,20.83z"/>
   <path class="fil1" d="M1305.16 823.65c-8.51,5.64 -16.66,7.57 -24.45,5.79 -7.72,-2.16 -14.56,-7.73 -20.5,-16.69l-78.18 -117.92c-6.09,-9.2 -8.56,-17.65 -7.39,-25.38 1.24,-8.1 6.12,-14.97 14.62,-20.61 8.28,-5.49 16.28,-7.15 24,-4.99 7.79,1.78 14.74,7.27 20.84,16.46l78.18 117.92c5.94,8.97 8.4,17.43 7.39,25.38 -1.17,7.72 -6.01,14.4 -14.51,20.04zm-134.64 -203.09c-9.66,6.4 -18.57,9.17 -26.76,8.31 -8.1,-1.24 -14.9,-6 -20.38,-14.28 -5.64,-8.5 -7.38,-16.62 -5.22,-24.34 2.24,-8.1 8.19,-15.35 17.84,-21.75 9.65,-6.4 18.53,-8.98 26.64,-7.74 7.95,1.02 14.75,5.78 20.39,14.28 5.48,8.28 7.22,16.39 5.21,24.34 -2.16,7.72 -8.07,14.78 -17.72,21.18z"/>
   <path class="fil1" d="M1455.62 736.02c-16.61,9.26 -32.13,14.28 -46.54,15.06 -14.17,0.64 -26.98,-2.8 -38.43,-10.31 -11.21,-7.64 -21.32,-19.53 -30.31,-35.67l-37.89 -67.92 -15.17 8.46c-6.74,3.76 -13.05,4.91 -18.92,3.44 -5.63,-1.59 -10.19,-5.53 -13.68,-11.79 -3.76,-6.74 -4.78,-12.81 -3.04,-18.2 1.83,-5.76 6.13,-10.52 12.87,-14.28l15.18 -8.46 -15.32 -27.46c-5.1,-9.16 -6.52,-17.36 -4.26,-24.63 2.14,-7.5 7.54,-13.67 16.21,-18.51 8.91,-4.97 17,-6.32 24.26,-4.05 7.13,2.02 13.25,7.61 18.35,16.76l15.31 27.46 34.33 -19.14c6.74,-3.76 12.93,-4.84 18.56,-3.24 5.49,1.35 10.12,5.41 13.88,12.15 3.49,6.26 4.44,12.21 2.84,17.83 -1.6,5.63 -5.77,10.33 -12.51,14.09l-34.33 19.14 36.67 65.76c5.64,10.11 12.17,16.43 19.56,18.93 7.64,2.37 16.64,0.67 27,-5.1 3.61,-2.02 6.78,-4.26 9.51,-6.73 2.73,-2.47 5.35,-4.56 7.86,-6.28 3.24,-2.12 6.62,-2.58 10.13,-1.38 3.37,0.96 7.21,5.29 11.51,13 3.22,5.78 5.08,11.37 5.57,16.78 0.49,5.41 -1.13,10.43 -4.87,15.04 -2.47,2.95 -6.26,6.33 -11.4,10.14 -4.76,3.92 -9.07,6.96 -12.93,9.11z"/>
   <path class="fil1" d="M1581.93 757.74c-6.63,2.72 -12.85,3.18 -18.66,1.39 -5.8,-1.79 -10.29,-5.46 -13.46,-11.02 -3.07,-5.3 -4.51,-11.71 -4.32,-19.24l2.39 -67.17 9.74 23.73 -131.5 -127.58c-5.28,-5.59 -8.68,-11.35 -10.22,-17.28 -1.39,-6.28 -0.47,-12.03 2.76,-17.23 3.39,-5.56 9.29,-10.07 17.71,-13.52 6.89,-2.83 13.05,-3.42 18.5,-1.78 5.59,1.28 12,5.65 19.24,13.12l92.28 96.28 -12.25 5.02 -0.58 -134.35c0.01,-10.14 1.56,-17.64 4.64,-22.48 3.23,-5.2 8.67,-9.37 16.33,-12.51 6.63,-2.72 12.6,-3.08 17.89,-1.08 5.44,1.64 9.7,5.11 12.77,10.41 3.32,5.19 4.81,11.73 4.47,19.62l-6.22 240.9c-0.27,10.25 -2.2,17.9 -5.79,22.95 -3.34,4.94 -8.57,8.88 -15.72,11.82z"/>
   <path class="fil1" d="M1847.98 438.87c-6.33,-2.51 -10.5,-6.25 -12.5,-11.22 -1.79,-5.28 -1.17,-11.28 1.84,-17.97l17.91 -41.01 11.21 11.03 -43.89 10.75c-6.96,1.8 -12.91,1.46 -17.83,-1.02 -4.97,-2.76 -8.04,-7.4 -9.2,-13.92 -1.16,-6.51 0.14,-11.79 3.91,-15.82 3.72,-4.3 9.15,-6.81 16.31,-7.52l44.97 -4.64 -6.23 14.55 -31.11 -33.12c-5.18,-5.52 -7.82,-10.93 -7.93,-16.24 0.12,-5.62 2.77,-10.44 7.94,-14.44 5.07,-4.54 10.41,-6.05 16,-4.52 5.54,1.25 10.42,5.01 14.61,11.26l22.67 32.94 -7.33 1.31 10.32 -38.81c1.51,-7.27 4.65,-12.46 9.42,-15.55 5,-3.41 10.66,-3.86 16.99,-1.34 6.6,2.47 10.79,6.34 12.57,11.63 1.74,5.01 0.96,10.89 -2.32,17.64l-17.91 41.01 -10.8 -11.11 43.81 -11.16c6.96,-1.8 12.93,-1.32 17.9,1.44 4.93,2.48 7.97,6.99 9.13,13.5 1.16,6.52 -0.12,11.93 -3.84,16.23 -3.76,4.03 -9.22,6.41 -16.38,7.12l-44.9 5.05 6.31 -14.15 30.96 32.31c5.41,5.2 8.16,10.45 8.26,15.75 0.11,5.31 -2.51,10.26 -7.86,14.85 -5.34,4.59 -10.79,6.26 -16.33,5.01 -5.33,-1.57 -10.06,-5.36 -14.21,-11.34l-23.22 -33.68 7.33 -1.31 -10.58 39.7c-1.83,7.05 -5.11,12.25 -9.83,15.61 -4.5,3.05 -9.89,3.45 -16.17,1.2z"/>
   <circle class="fil1" cx="2219.8" cy="2213.64" r="1308.52"/>
   <path class="fil2" d="M2818.69 1847.06l-581.56 -290.79c-10.91,-5.46 -23.77,-5.46 -34.68,0l-581.56 290.79c-13.15,6.57 -21.44,20 -21.44,34.68l0 236.08c0,348.42 239.07,677.3 612.18,757.28 391.17,-63.66 629.61,-421.05 628.52,-757.28l0 -236.08c0,-14.68 -8.31,-28.11 -21.46,-34.68zm-598.9 162.07c-24.42,0 -44.29,-19.88 -44.29,-44.3 2.23,-58.69 86.38,-58.67 88.6,0 -0.01,24.43 -19.88,44.3 -44.31,44.3zm542.79 108.69c0,371.98 -266.95,554.45 -337.84,597.08l0 -401.69 73.14 -73.14c78.87,40.77 177.28,-19.89 176.09,-109.09 0,-67.19 -54.66,-121.86 -121.86,-121.86 -89.18,-1.18 -149.86,97.23 -109.08,176.1l-84.5 84.51c-7.27,7.27 -11.36,17.13 -11.36,27.42l0 458.04c-28.71,12.73 -58.3,23.5 -88.6,32.26l0 -707.12c128.97,-45.52 99.66,-234.65 -38.78,-237.37 -138.46,2.73 -167.73,191.88 -38.78,237.37l0 707.12c-30.3,-8.73 -59.89,-19.53 -88.6,-32.23l0 -458.07c0,-10.28 -4.09,-20.15 -11.36,-27.42l-84.5 -84.5c40.77,-78.87 -19.89,-177.29 -109.09,-176.09 -67.19,0 -121.86,54.66 -121.86,121.86 -1.18,89.18 97.23,149.87 176.1,109.08l73.15 73.14 0 401.7c-70.89,-42.65 -337.84,-225.12 -337.84,-597.1l0 -212.1 542.78 -271.4 542.79 271.4 0 212.1zm-254.76 13.17c0,-24.42 19.87,-44.3 44.29,-44.3 58.69,2.23 58.67,86.38 0,88.6 -24.42,0 -44.29,-19.87 -44.29,-44.3zm-576.05 0c0,24.43 -19.87,44.3 -44.3,44.3 -58.69,-2.22 -58.67,-86.37 0,-88.6 24.43,0 44.3,19.88 44.3,44.3z"/>
  </g>
 </g>
</svg>
